/* XPM */
static char * collectible_open_xpm_xpm[] = {
"32 32 7 1",
" 	c #10162E",
".	c #8D768A",
"+	c #E17B50",
"@	c #31314B",
"#	c #0C1317",
"$	c #A84111",
"%	c #70162B",
"                                ",
"                                ",
"                                ",
"                                ",
"                                ",
"                                ",
"    ..        ...        ..     ",
"    ..++++++++...++++++++..     ",
"    ..+++++++....++++++++..     ",
"   ..++++++++...++++++++...     ",
"   ..++++++++...++++++++...     ",
"   @@########...########...     ",
"   @@###################@@.     ",
"   @@###################@@.     ",
"   @@###################@@.     ",
"   @@###################@@.     ",
"   @@###################@@#     ",
"   @@###################@@@     ",
"   @@@@@@@@@@@@@@@@@@@@@@@@     ",
"   @@@@@@@@@@###@@@@@@@@@@@     ",
"   @@$$$$$$$@###@$$$$$$$@@@     ",
"   @@$$$$$$$@@@@@$$$$$$$@@@     ",
"   @@$$$$$$$$$$$$$$$$$$$@@@     ",
"   @@%%%$$$$$%%$$$$$$%%%@@@     ",
"   @@$$$$$$$$$$$$$$$$$$$@@@     ",
"   @@$$$$$$$$$$$$$$$$$$$@@      ",
"   @@@@@@@@@@@@@@@@@@@@@@@      ",
"                                ",
"                                ",
"                                ",
"                                ",
"                                "};
