/* XPM */
static char * player_xpm[] = {
"32 32 11 1",
" 	c #10162E",
".	c #17394A",
"+	c #0C1317",
"@	c #FCA89D",
"#	c #4C63E0",
"$	c #1E1B80",
"%	c #472138",
"&	c #70162B",
"*	c #A84111",
"=	c #A5B5D4",
"-	c #31314B",
"                                ",
"                                ",
"                                ",
"              .....             ",
"             .......            ",
"            ..++.....           ",
"            .++++.....          ",
"            .++++....           ",
"            .+@++....           ",
"            .++++....           ",
"            ..@@....            ",
"             .....+..##         ",
"            .+...+..###         ",
"           $#......#####        ",
"           $##....######        ",
"           $###.########        ",
"           $$#######  ###       ",
"           $$%&&&%%%  ###       ",
"          %%#########  **       ",
"         %%%#########  ***      ",
"         %=%########## ***      ",
"         == %#######&& *=*      ",
"        === %%%###&&&&& =*      ",
"       === %%%%%  &&&&&==       ",
"      ==   %%%%%   &&&&==       ",
"           %%%%     &&===       ",
"           %%%      &&==        ",
"           ---       ==&        ",
"          ----       ***        ",
"         -----       ***        ",
"                     ***        ",
"                                "};
