/* XPM */
static char * main_char_xpm[] = {
"20 28 65 1",
" 	c None",
".	c #000000",
"+	c #000000",
"@	c #000000",
"#	c #211D1D",
"$	c #6F5756",
"%	c #FCA89D",
"&	c #D41900",
"*	c #FE8270",
"=	c #A15C52",
"-	c #812611",
";	c #FB9B72",
">	c #E17B50",
",	c #FF4D00",
"'	c #A84111",
")	c #8C6A56",
"!	c #453625",
"~	c #874A00",
"{	c #BAA368",
"]	c #FAE898",
"^	c #FAFA82",
"/	c #D3D9B2",
"(	c #999F8E",
"_	c #82A368",
":	c #00FF8C",
"<	c #07BB79",
"[	c #323C39",
"}	c #14605D",
"|	c #696A6A",
"1	c #00EDFF",
"2	c #DEF9FC",
"3	c #748F93",
"4	c #17394A",
"5	c #3494CB",
"6	c #3B6983",
"7	c #0C1317",
"8	c #1F324D",
"9	c #12274D",
"0	c #A5B5D4",
"a	c #0F1833",
"b	c #4C63E0",
"c	c #CDD1EC",
"d	c #42428F",
"e	c #31314B",
"f	c #1E1B80",
"g	c #2F1D5A",
"h	c #5A5875",
"i	c #222034",
"j	c #76428A",
"k	c #B598B2",
"l	c #8D768A",
"m	c #D77BBA",
"n	c #8F4975",
"o	c #472138",
"p	c #EF3E6D",
"q	c #70162B",
"r	c #D95763",
"s	c #8294AF",
"t	c #5C855B",
"u	c #244B3A",
"v	c #111F12",
"w	c #1B0B0B",
"x	c #10162E",
"y	c #1A130F",
"z	c #1C1429",
"        44444       ",
"       4444444      ",
"      447744444     ",
"      4777744444    ",
"      477774444     ",
"      47%774444     ",
"      477774444     ",
"      44%%4444      ",
"       44444744bb   ",
"      47444744bbb   ",
"     fb444444bbbbb  ",
"     fbb4444bbbbbb  ",
"     fbbb4bbbbbbbb  ",
"     ffbbbbbbb  bbb ",
"     ffoqqqooo  bbb ",
"    oobbbbbbbbb  '' ",
"   ooobbbbbbbbb  '''",
"   o0obbbbbbbbbb '''",
"   00 obbbbbbbqq '0'",
"  000 ooobbbqqqqq 0'",
" 000 ooooo  qqqqq00 ",
"00   ooooo   qqqq00 ",
"     oooo     qq000 ",
"     ooo      qq00  ",
"     eee       00q  ",
"    eeee       '''  ",
"   eeeee       '''  ",
"               '''  "};
