/* XPM */
static char * wall_xpm[] = {
"32 32 7 1",
" 	c #696A6A",
".	c #D3D9B2",
"+	c #999F8E",
"@	c #211D1D",
"#	c #5A5875",
"$	c #FFFFFF",
"%	c #8D768A",
" ..+    ++  +..+@  ..+       +++",
"....+  ++++ ....+@....+ +..+ +++",
"....++ +++++....++....++....++++",
"+..+++ @++  +..+ ++..+++....+ ++",
" ++++ @...+  ++   ++++@++..+    ",
" ++++@.....+   ++  ++ @++++     ",
" ... @.....++ ..++    @ ++  .+  ",
".....@+...+++....+  +++@  +...+ ",
".....+@++++++....+@+..++@+....+ ",
"+...++@@+++  +..++@+..++@+....+ ",
"+++++@ ..++   +++@  +++++++..++@",
" +++@ +..+++  @@@@   +++++++++@ ",
"  +++ ++++++   +++@  ..++   @@  ",
" +..+  ++++++ +..++@....++ @..  ",
"+...+   ++ +++....++....++@.... ",
"++.+++  @@@ ++....+++..++@+....+",
"++++++  +++@ ++..+++ ++++@++++++",
"#+++####++++@@#+@+@+@++##$@##++#",
"@##@@####++#@@#@@#@@@##@@@#@@##@",
"@@#@@#@######@@##@@#@@#@@@#@@%@@",
"#@@##@@@#####@@@###@@####@@#%@@#",
"@###@@@#@@##@@@#@#@@@@#@%@@@###@",
"@@#@#@@#@@#@@@@@###@@@#%@@@@@@@@",
"@%%%@@@@##@@@@@##@@@@#%%%@@##@@@",
"#%%##@@#####@@%%##@@###%#@####@@",
"@##@@#@@##@##@##@@#@#@@#######@@",
"@@#@@#@@#%@@#@@#@@#@#@@#@@##@@#@",
"#@@##@@#@@%#@@@@##@@@##@@#@#@@#@",
"@###@@@@###@@@###@@@@@###@@@##@@",
"@@#@#@@@@@@#@@@#@#@@@#@#@@###@@@",
"@@##@@@@@##@@@@##@@@@@##@@@#@#@@",
"@@@@@@@@@@@@@@@@@@@@@@@@@@@@@@@@"};
